<svg width="124" height="25" viewBox="0 0 124 25" fill="none" xmlns="http://www.w3.org/2000/svg">
<g clip-path="url(#clip0)">
<path d="M8.1089 1.66663C9.28294 1.66663 10.3649 1.78885 11.3549 2.03329C12.3448 2.25552 13.185 2.61107 13.8757 3.09996C14.5893 3.56663 15.1418 4.16663 15.5332 4.89996C15.9475 5.61107 16.1547 6.45552 16.1547 7.43329C16.1547 8.29996 16.0281 9.04438 15.7749 9.66663C15.5216 10.2889 15.1994 10.811 14.808 11.2333C14.4397 11.6555 14.0253 11.9889 13.5649 12.2333C13.1044 12.4777 12.6555 12.6666 12.2181 12.8V12.8666C13.7836 13.111 15.0152 13.7333 15.913 14.7333C16.8339 15.7333 17.2943 16.9666 17.2943 18.4333C17.2943 19.1666 17.1561 19.9222 16.8799 20.7C16.6267 21.4555 16.1432 22.1555 15.4295 22.8C14.7389 23.4444 13.772 23.9777 12.5289 24.4C11.3089 24.8 9.73185 25 7.79812 25H0.166687V1.66663H8.1089ZM5.07015 11.1333H7.45281C8.23552 11.1333 8.8686 11.0333 9.35202 10.8333C9.85852 10.6333 10.2499 10.3889 10.5261 10.1C10.8024 9.78888 10.9865 9.46663 11.0786 9.13329C11.1707 8.79996 11.2168 8.49996 11.2168 8.23329C11.2168 8.07773 11.1822 7.83329 11.1131 7.49996C11.0671 7.16663 10.9059 6.8444 10.6297 6.53329C10.3764 6.22218 9.9851 5.9444 9.4556 5.69996C8.92619 5.45552 8.18948 5.33329 7.24562 5.33329H5.07015V11.1333ZM5.07015 21.3333H7.79812C8.55785 21.3333 9.21394 21.2444 9.76644 21.0666C10.3189 20.8666 10.7679 20.6222 11.1131 20.3333C11.4584 20.0222 11.7117 19.6777 11.8729 19.3C12.0339 18.9 12.1145 18.4889 12.1145 18.0666C12.1145 17.6444 12.0455 17.2444 11.9074 16.8666C11.7693 16.4666 11.539 16.1222 11.2168 15.8333C10.8944 15.5222 10.457 15.2777 9.90452 15.1C9.35202 14.9 8.64994 14.8 7.79812 14.8H5.07015V21.3333Z" fill="#0A2896"/>
<path d="M35.4726 1.66663L34.5134 5.79996H28.4973V25H23.5938V5.79996H16.6184V1.66663H35.4726Z" fill="#0A2896"/>
<path d="M52.365 1.66663L50.4467 5.79996H41.7984V10.6666H45.735C47.5077 10.6666 48.9464 10.9222 50.0514 11.4333C51.1795 11.9222 52.0543 12.5444 52.6759 13.3C53.3204 14.0555 53.7579 14.8777 53.988 15.7666C54.2183 16.6333 54.3334 17.4444 54.3334 18.2C54.3334 18.8222 54.2068 19.5222 53.9535 20.3C53.7003 21.0777 53.2514 21.8222 52.6068 22.5333C51.9852 23.2222 51.1104 23.811 49.9824 24.3C48.8774 24.7666 47.4616 25 45.735 25H36.895V1.66663H52.365ZM41.7984 21.3333H44.8372C46.2184 21.3333 47.2774 21.0555 48.0141 20.5C48.7738 19.9222 49.1537 19.0333 49.1537 17.8333C49.1537 16.6333 48.7738 15.7555 48.0141 15.2C47.2774 14.6222 46.2184 14.3333 44.8372 14.3333H41.7984V21.3333Z" fill="#0A2896"/>
<path d="M65.125 4.16338H65.2067L67.1667 1.55005H68.4967L66.245 4.38505L68.835 7.50005H67.435L65.2067 4.64172H65.125V7.50005H64.0284V4.64172H63.9467L61.7184 7.50005H60.3184L62.9084 4.38505L60.6567 1.55005H61.9867L63.9467 4.16338H64.0284V1.55005H65.125V4.16338Z" fill="#0A2896"/>
<path d="M70.035 7.50005V1.55005H71.1317V6.21672H71.155L74.0367 1.55005H75.425V7.50005H74.3284V2.83338H74.305L71.4234 7.50005H70.035Z" fill="#0A2896"/>
<path d="M77.0592 7.59338C76.9425 7.59338 76.8258 7.57782 76.7092 7.54672C76.5925 7.51561 76.5342 7.50394 76.5342 7.51172V6.49672C76.5653 6.51227 76.6003 6.52394 76.6392 6.53171C76.6781 6.53949 76.717 6.54727 76.7558 6.55505C76.7948 6.55505 76.8375 6.55505 76.8842 6.55505C77.0708 6.55505 77.2303 6.47727 77.3625 6.32172C77.4948 6.15838 77.5998 5.89782 77.6775 5.54005C77.7553 5.17449 77.8098 4.70394 77.8408 4.12838C77.8798 3.55282 77.8992 2.84894 77.8992 2.01672V1.55005H81.9592V7.50005H80.8625V2.43672H78.8908V2.60005C78.8908 3.50227 78.8558 4.27227 78.7858 4.91005C78.7158 5.54005 78.6069 6.05338 78.4592 6.45005C78.3114 6.84671 78.1208 7.13838 77.8875 7.32505C77.6542 7.50394 77.3781 7.59338 77.0592 7.59338Z" fill="#0A2896"/>
<path d="M83.94 7.50005V1.55005H85.0367V6.21672H85.06L87.9417 1.55005H89.33V7.50005H88.2333V2.83338H88.21L85.3283 7.50005H83.94Z" fill="#0A2896"/>
<path d="M91.3142 1.55005H92.4108V6.61338H94.5225V1.55005H95.6192V6.61338H97.7308V1.55005H98.8275V6.61338H99.7258V9.18005H98.6758V7.50005H91.3142V1.55005Z" fill="#0A2896"/>
<path d="M102.018 3.96505H105.052V1.55005H106.148V7.50005H105.052V4.85172H102.018V7.50005H100.922V1.55005H102.018V3.96505Z" fill="#0A2896"/>
<path d="M109.583 7.59333C108.907 7.59333 108.389 7.43 108.032 7.10333C107.682 6.77666 107.507 6.345 107.507 5.80833C107.507 5.52056 107.561 5.25611 107.67 5.015C107.778 4.76611 107.958 4.55611 108.207 4.385C108.455 4.20611 108.778 4.07 109.175 3.97666C109.579 3.87556 110.073 3.825 110.657 3.825H111.427V3.53333C111.427 2.74 111.014 2.34333 110.19 2.34333C109.84 2.34333 109.505 2.38611 109.187 2.47167C108.875 2.54944 108.545 2.70111 108.195 2.92667V1.97C108.522 1.79111 108.86 1.66277 109.21 1.585C109.568 1.49944 109.894 1.45667 110.19 1.45667C111.007 1.45667 111.598 1.64722 111.963 2.02833C112.337 2.40167 112.523 3.02 112.523 3.88333V7.5H111.543V6.68333H111.52C111.271 7.02556 110.972 7.26277 110.622 7.395C110.272 7.52722 109.925 7.59333 109.583 7.59333ZM109.84 6.70667C110.073 6.70667 110.287 6.66777 110.482 6.59C110.676 6.51222 110.843 6.40722 110.983 6.275C111.123 6.135 111.232 5.97166 111.31 5.785C111.388 5.59833 111.427 5.39222 111.427 5.16666V4.64166H110.657C110.275 4.64166 109.957 4.66889 109.7 4.72333C109.451 4.77777 109.248 4.85944 109.093 4.96833C108.945 5.06944 108.837 5.19389 108.767 5.34166C108.704 5.48166 108.673 5.63722 108.673 5.80833C108.673 6.065 108.767 6.27889 108.953 6.45C109.148 6.62111 109.443 6.70667 109.84 6.70667Z" fill="#0A2896"/>
<path d="M114.993 5.20172C114.619 5.05394 114.339 4.83227 114.153 4.53672C113.966 4.24116 113.873 3.88727 113.873 3.47505C113.873 2.89172 114.063 2.42505 114.444 2.07505C114.825 1.72505 115.413 1.55005 116.206 1.55005H118.423V7.50005H117.326V5.40005H116.206H116.089L115.039 7.50005H113.744L114.993 5.20172ZM117.326 2.43672H116.206C115.793 2.43672 115.486 2.53005 115.284 2.71672C115.089 2.90338 114.993 3.15616 114.993 3.47505C114.993 3.79394 115.093 4.04672 115.296 4.23338C115.498 4.42005 115.801 4.51338 116.206 4.51338H117.326V2.43672Z" fill="#0A2896"/>
<path d="M61.695 14.0233H64.11C64.0323 13.4711 63.8261 13.0627 63.4917 12.7983C63.165 12.5261 62.7217 12.39 62.1617 12.39C61.9361 12.39 61.7339 12.4094 61.555 12.4483C61.3839 12.4872 61.2323 12.5261 61.1 12.565C60.9523 12.6117 60.82 12.6661 60.7034 12.7283V11.725C60.82 11.6783 60.9523 11.6356 61.1 11.5967C61.2323 11.5577 61.3839 11.5267 61.555 11.5033C61.7339 11.4722 61.9361 11.4567 62.1617 11.4567C62.6594 11.4567 63.1028 11.5267 63.4917 11.6667C63.8806 11.8067 64.2073 12.0089 64.4717 12.2733C64.7439 12.5377 64.95 12.8606 65.09 13.2417C65.2378 13.6227 65.3117 14.0506 65.3117 14.525C65.3117 14.9994 65.2378 15.4272 65.09 15.8083C64.95 16.1894 64.7439 16.5122 64.4717 16.7767C64.2073 17.0411 63.8806 17.2433 63.4917 17.3833C63.1028 17.5233 62.6594 17.5933 62.1617 17.5933C61.9284 17.5933 61.7184 17.5817 61.5317 17.5583C61.345 17.535 61.1856 17.5039 61.0534 17.465C60.8978 17.4261 60.7617 17.3794 60.645 17.325V16.2983C60.7617 16.3683 60.8978 16.4306 61.0534 16.485C61.1856 16.5317 61.345 16.5744 61.5317 16.6133C61.7184 16.6444 61.9284 16.66 62.1617 16.66C62.745 16.66 63.2 16.5161 63.5267 16.2283C63.8611 15.9406 64.0594 15.5011 64.1217 14.91H61.695V14.0233Z" fill="#0A2896"/>
<path d="M66.4353 11.55H67.5319V14.1634L69.9236 11.55H71.4169L68.6519 14.385L71.7553 17.5001H70.2036L67.5319 14.6417V17.5001H66.4353V11.55Z" fill="#0A2896"/>
<path d="M74.9599 17.5933C74.5166 17.5933 74.1083 17.5194 73.7349 17.3717C73.3616 17.2239 73.0389 17.0139 72.7666 16.7417C72.5022 16.4694 72.296 16.1467 72.1483 15.7733C72.0005 15.4 71.9266 14.9839 71.9266 14.525C71.9266 14.0739 72.0005 13.6617 72.1483 13.2883C72.296 12.9072 72.5022 12.5806 72.7666 12.3083C73.0389 12.0361 73.3616 11.8261 73.7349 11.6783C74.1083 11.5306 74.5166 11.4567 74.9599 11.4567C75.4033 11.4567 75.8116 11.5306 76.1849 11.6783C76.5583 11.8261 76.8772 12.0361 77.1416 12.3083C77.4139 12.5806 77.6239 12.9072 77.7716 13.2883C77.9194 13.6617 77.9933 14.0739 77.9933 14.525C77.9933 14.9839 77.9194 15.4 77.7716 15.7733C77.6239 16.1467 77.4139 16.4694 77.1416 16.7417C76.8772 17.0139 76.5583 17.2239 76.1849 17.3717C75.8116 17.5194 75.4033 17.5933 74.9599 17.5933ZM74.9599 16.7067C75.2166 16.7067 75.4577 16.6561 75.6833 16.555C75.9089 16.4539 76.1033 16.31 76.2666 16.1233C76.4377 15.9289 76.5739 15.6994 76.6749 15.435C76.776 15.1627 76.8266 14.8594 76.8266 14.525C76.8266 14.1906 76.776 13.8911 76.6749 13.6267C76.5739 13.3544 76.4377 13.125 76.2666 12.9383C76.0955 12.7439 75.8972 12.5961 75.6716 12.495C75.446 12.3939 75.2089 12.3433 74.9599 12.3433C74.7033 12.3433 74.4622 12.3939 74.2366 12.495C74.011 12.5961 73.8127 12.7439 73.6416 12.9383C73.4783 13.125 73.346 13.3544 73.2449 13.6267C73.1439 13.8911 73.0933 14.1906 73.0933 14.525C73.0933 14.8594 73.1439 15.1627 73.2449 15.435C73.346 15.6994 73.4783 15.9289 73.6416 16.1233C73.8127 16.31 74.011 16.4539 74.2366 16.555C74.4622 16.6561 74.7033 16.7067 74.9599 16.7067Z" fill="#0A2896"/>
<path d="M83.3869 12.6817C83.2935 12.6194 83.1807 12.565 83.0485 12.5183C82.9396 12.4794 82.8035 12.4406 82.6402 12.4017C82.4846 12.3627 82.3057 12.3433 82.1035 12.3433C81.5046 12.3433 81.0224 12.5339 80.6569 12.915C80.299 13.2883 80.1202 13.825 80.1202 14.525C80.1202 15.225 80.299 15.7656 80.6569 16.1467C81.0224 16.52 81.5046 16.7067 82.1035 16.7067C82.3057 16.7067 82.4846 16.6911 82.6402 16.66C82.8035 16.6211 82.9396 16.5822 83.0485 16.5433C83.1807 16.4967 83.2935 16.4383 83.3869 16.3683V17.325C83.2935 17.3794 83.1769 17.4261 83.0369 17.465C82.9202 17.5039 82.7724 17.535 82.5935 17.5583C82.4224 17.5817 82.2202 17.5933 81.9869 17.5933C81.5357 17.5933 81.1235 17.5194 80.7502 17.3717C80.3846 17.2239 80.0657 17.0177 79.7935 16.7533C79.529 16.4811 79.3229 16.1583 79.1752 15.785C79.0274 15.4039 78.9535 14.9839 78.9535 14.525C78.9535 14.0661 79.0274 13.65 79.1752 13.2767C79.3229 12.8956 79.529 12.5727 79.7935 12.3083C80.0657 12.0361 80.3846 11.8261 80.7502 11.6783C81.1235 11.5306 81.5357 11.4567 81.9869 11.4567C82.2202 11.4567 82.4224 11.4722 82.5935 11.5033C82.7724 11.5267 82.9202 11.5577 83.0369 11.5967C83.1769 11.6356 83.2935 11.6783 83.3869 11.725V12.6817Z" fill="#0A2896"/>
<path d="M84.6483 17.5001V11.55H85.745V16.2167H85.7683L88.65 11.55H90.0383V17.5001H88.9417V12.8334H88.9183L86.0367 17.5001H84.6483Z" fill="#0A2896"/>
<path d="M95.7092 12.6817C95.6158 12.6194 95.5025 12.565 95.3709 12.5183C95.2617 12.4794 95.1258 12.4406 94.9625 12.4017C94.8067 12.3627 94.6275 12.3433 94.4258 12.3433C93.8267 12.3433 93.3442 12.5339 92.9792 12.915C92.6208 13.2883 92.4425 13.825 92.4425 14.525C92.4425 15.225 92.6208 15.7656 92.9792 16.1467C93.3442 16.52 93.8267 16.7067 94.4258 16.7067C94.6275 16.7067 94.8067 16.6911 94.9625 16.66C95.1258 16.6211 95.2617 16.5822 95.3709 16.5433C95.5025 16.4967 95.6158 16.4383 95.7092 16.3683V17.325C95.6158 17.3794 95.4992 17.4261 95.3592 17.465C95.2425 17.5039 95.0942 17.535 94.9158 17.5583C94.7442 17.5817 94.5425 17.5933 94.3092 17.5933C93.8575 17.5933 93.4458 17.5194 93.0725 17.3717C92.7067 17.2239 92.3875 17.0177 92.1158 16.7533C91.8508 16.4811 91.645 16.1583 91.4975 15.785C91.3492 15.4039 91.2758 14.9839 91.2758 14.525C91.2758 14.0661 91.3492 13.65 91.4975 13.2767C91.645 12.8956 91.8508 12.5727 92.1158 12.3083C92.3875 12.0361 92.7067 11.8261 93.0725 11.6783C93.4458 11.5306 93.8575 11.4567 94.3092 11.4567C94.5425 11.4567 94.7442 11.4722 94.9158 11.5033C95.0942 11.5267 95.2425 11.5577 95.3592 11.5967C95.4992 11.6356 95.6158 11.6783 95.7092 11.725V12.6817Z" fill="#0A2896"/>
<path d="M101.497 11.55V12.4367H99.4317V17.5001H98.335V12.4367H96.27V11.55H101.497Z" fill="#0A2896"/>
<path d="M105.064 17.5933C104.598 17.5933 104.178 17.5233 103.804 17.3833C103.431 17.2433 103.112 17.0411 102.848 16.7767C102.583 16.5044 102.381 16.1777 102.241 15.7967C102.101 15.4156 102.031 14.9839 102.031 14.5017C102.031 14.035 102.097 13.615 102.229 13.2417C102.369 12.8606 102.559 12.5377 102.801 12.2733C103.042 12.0089 103.326 11.8067 103.653 11.6667C103.979 11.5267 104.333 11.4567 104.714 11.4567C105.562 11.4567 106.219 11.7056 106.686 12.2033C107.16 12.6933 107.398 13.4477 107.398 14.4667V14.77H103.198C103.236 15.3377 103.423 15.8044 103.758 16.17C104.092 16.5277 104.566 16.7067 105.181 16.7067C105.531 16.7067 105.861 16.6483 106.173 16.5317C106.491 16.4072 106.763 16.2672 106.989 16.1117V17.2083C106.896 17.255 106.791 17.3017 106.674 17.3483C106.565 17.3872 106.433 17.4261 106.278 17.465C106.129 17.5039 105.954 17.535 105.753 17.5583C105.558 17.5817 105.328 17.5933 105.064 17.5933ZM104.714 12.3433C104.512 12.3433 104.318 12.3861 104.131 12.4717C103.952 12.5494 103.793 12.6622 103.653 12.81C103.513 12.95 103.399 13.1211 103.314 13.3233C103.236 13.5177 103.198 13.7277 103.198 13.9533H106.231C106.231 13.44 106.094 13.0433 105.823 12.7633C105.55 12.4833 105.181 12.3433 104.714 12.3433Z" fill="#0A2896"/>
<path d="M108.514 11.55H110.229L111.804 14.9334L113.379 11.55H115.048V17.5001H113.951V12.6H113.928L112.329 15.9834H111.233L109.634 12.6H109.611V17.5001H108.514V11.55Z" fill="#0A2896"/>
<path d="M118.242 17.5933C117.565 17.5933 117.048 17.43 116.69 17.1033C116.34 16.7767 116.165 16.345 116.165 15.8083C116.165 15.5206 116.219 15.2561 116.328 15.015C116.437 14.7661 116.616 14.5561 116.865 14.385C117.113 14.2061 117.437 14.07 117.833 13.9767C118.238 13.8756 118.732 13.825 119.315 13.825H120.085V13.5333C120.085 12.74 119.673 12.3433 118.848 12.3433C118.498 12.3433 118.163 12.3861 117.845 12.4717C117.533 12.5494 117.203 12.7011 116.853 12.9267V11.97C117.18 11.7911 117.518 11.6627 117.868 11.585C118.226 11.4994 118.553 11.4567 118.848 11.4567C119.665 11.4567 120.256 11.6472 120.622 12.0283C120.995 12.4017 121.182 13.02 121.182 13.8833V17.5H120.202V16.6833H120.178C119.929 17.0256 119.63 17.2627 119.28 17.395C118.93 17.5272 118.583 17.5933 118.242 17.5933ZM118.498 16.7067C118.732 16.7067 118.945 16.6677 119.14 16.59C119.334 16.5122 119.502 16.4072 119.642 16.275C119.782 16.135 119.89 15.9717 119.968 15.785C120.046 15.5983 120.085 15.3922 120.085 15.1667V14.6417H119.315C118.933 14.6417 118.615 14.6689 118.358 14.7233C118.109 14.7777 117.907 14.8594 117.752 14.9683C117.603 15.0694 117.495 15.1939 117.425 15.3417C117.363 15.4817 117.332 15.6372 117.332 15.8083C117.332 16.065 117.425 16.2789 117.612 16.45C117.806 16.6211 118.102 16.7067 118.498 16.7067Z" fill="#0A2896"/>
</g>
<defs>
<clipPath id="clip0">
<rect width="123.333" height="25" fill="white" transform="translate(0.166687)"/>
</clipPath>
</defs>
</svg>
