<svg width="46" height="45" viewBox="0 0 46 45" fill="none" xmlns="http://www.w3.org/2000/svg">
<g clip-path="url(#clip0)">
<path fill-rule="evenodd" clip-rule="evenodd" d="M45.773 13.6907V12.0497H37.1646V13.6907H40.6195V20.7733H42.4333V13.6907H45.8018H45.773ZM31.7807 32.7215H33.5657L30.226 24.0266H27.6348L24.2087 32.7215H25.9938L27.2318 29.8136H30.5715L31.7807 32.7215ZM30.1684 28.2877H27.7212L28.6137 25.7541H29.2471L30.1396 28.2877H30.1684ZM31.7807 8.70994H33.5657L30.226 0.0151189H27.6348L24.2087 8.70994H25.9938L27.2318 5.80207H30.5715L31.7807 8.70994ZM30.1684 4.27616H27.7212L28.6137 1.74257H29.2471L30.1396 4.27616H30.1684ZM13.6713 44.9863H20.8402V43.1725H15.5715V36.2915H13.6713V44.9863ZM13.6713 20.7733H20.8402V18.9595H15.5715V12.0785H13.6713V20.7733ZM8.0571 27.1648C8.0571 25.4374 6.7903 24.4873 4.80374 24.4873H0.801819V33.1821H2.61564V29.8136H4.80374C6.7903 29.8136 8.0571 28.8635 8.0571 27.1073V27.1648ZM6.4736 27.2224C6.4736 27.9998 5.95537 28.3165 4.80374 28.3165H2.87476V26.1284H4.80374C5.92658 26.1284 6.4736 26.4451 6.4736 27.2224ZM2.61564 1.6274H7.79798V-0.0136719H0.801819V8.68115H2.61564V5.13988H6.70393V3.4988H2.61564V1.59861V1.6274ZM39.727 36.2627H37.7116V44.9575H39.3527V38.7099H39.583L43.7289 44.9575H45.773V36.2627H44.132V42.5967H43.9016L39.727 36.2627Z" fill="#FF0000"/>
</g>
<defs>
<clipPath id="clip0">
<rect width="45" height="45" fill="white" transform="translate(0.801819)"/>
</clipPath>
</defs>
</svg>
