<svg width="32" height="32" viewBox="0 0 32 32" fill="none" xmlns="http://www.w3.org/2000/svg">
<g clip-path="url(#clip0)">
<path d="M21.46 5.01696C21.031 4.57296 20.317 4.57296 19.873 5.01696C19.444 5.44596 19.444 6.15996 19.873 6.58796L27.92 14.635H1.366C0.747005 14.636 0.255005 15.128 0.255005 15.747C0.255005 16.366 0.747005 16.874 1.366 16.874H27.92L19.873 24.906C19.444 25.35 19.444 26.065 19.873 26.493C20.317 26.937 21.032 26.937 21.46 26.493L31.412 16.541C31.856 16.112 31.856 15.398 31.412 14.97L21.46 5.01696Z" fill="black" fill-opacity="0.4"/>
</g>
<defs>
<clipPath id="clip0">
<rect width="31.49" height="31.49" fill="white" transform="translate(0.255005 0.0100098)"/>
</clipPath>
</defs>
</svg>
